HIERARCHY
ROOT Hips
{
  OFFSET 0 0 0
  CHANNELS 6 Xposition Yposition Zposition Zrotation Yrotation Xrotation
  JOINT LeftThigh
  {
    OFFSET 8.409438 0 -5.917753
    CHANNELS 3 Zrotation Yrotation Xrotation
    JOINT LeftLeg
    {
      OFFSET 0 0 -42.358652
      CHANNELS 3 Zrotation Yrotation Xrotation
      JOINT LeftFoot
      {
        OFFSET 0 0 -39.357303
        CHANNELS 3 Zrotation Yrotation Xrotation
      }
    }
  }
  JOINT RightThigh
  {
    OFFSET -8.409438 0 -5.917753
    CHANNELS 3 Zrotation Yrotation Xrotation
    JOINT RightLeg
    {
      OFFSET 0 0 -42.358652
      CHANNELS 3 Zrotation Yrotation Xrotation
      JOINT RightFoot
      {
        OFFSET 0 0 -39.357303
        CHANNELS 3 Zrotation Yrotation Xrotation
      }
    }
  }
  JOINT SpineLow
  {
    OFFSET 0 0 4.719101
    CHANNELS 3 Zrotation Yrotation Xrotation
    JOINT SpineMid
    {
      OFFSET 0 0 12.899191
      CHANNELS 3 Zrotation Yrotation Xrotation
      JOINT Chest
      {
        OFFSET 0 0 12.899191
        CHANNELS 3 Zrotation Yrotation Xrotation
        JOINT LeftShoulder
        {
          OFFSET 7.550562 1.41573 9.438202
          CHANNELS 3 Zrotation Yrotation Xrotation
          JOINT LeftArm
          {
            OFFSET 9.155056 0 4.247191
            CHANNELS 3 Zrotation Yrotation Xrotation
            JOINT LeftForearm
            {
              OFFSET 0 0 25.771955
              CHANNELS 3 Zrotation Yrotation Xrotation
              JOINT LeftHand
              {
                OFFSET 0 0 25.197169
                CHANNELS 3 Zrotation Yrotation Xrotation
              }
            }
          }
        }
        JOINT RightShoulder
        {
          OFFSET -7.550562 1.41573 9.438202
          CHANNELS 3 Zrotation Yrotation Xrotation
          JOINT RightArm
          {
            OFFSET -9.155056 0 4.247191
            CHANNELS 3 Zrotation Yrotation Xrotation
            JOINT RightForearm
            {
              OFFSET 0 0 -25.771955
              CHANNELS 3 Zrotation Yrotation Xrotation
              JOINT RightHand
              {
                OFFSET 0 0 -25.197169
                CHANNELS 3 Zrotation Yrotation Xrotation
              }
            }
          }
        }
        JOINT Neck
        {
          OFFSET 0 0 15.101124
          CHANNELS 3 Zrotation Yrotation Xrotation
          JOINT Head
          {
            OFFSET 0 0 11.325843
            CHANNELS 3 Zrotation Yrotation Xrotation
            End Site
            {
              OFFSET 0 0 14.157303
            }
          }
        }
      }
    }
  }
}
MOTION
Frames: 5
Frame Time: 0.0
0.0  101.685394  0.0  -1.115161  25.65643  -99.496542  4.875418  -20.195732  0.818634  -18.86667  10.315618  15.514406  3.512106  1.477568  4.690201  -21.625437  13.980896  -0.90001  -8.066476  7.159193  20.178493  -0.094334  3.068069  -3.144266  0.50195  0.549697  2.411339  1.42545  1.450733  6.603221  1.42545  1.450733  6.603221  -1.283771  23.483592  3.383367  139.34987  51.908189  -165.098033  -11.560173  -37.002803  106.597312  97.220711  13.487796  -35.614678  9.966051  -5.438221  13.212721  58.432519  62.855174  -5.544626  -60.520154  43.01332  -84.883671  74.886882  8.091593  36.881332  -10.014063  -4.427862  -2.994886  -7.528744  -3.272982  -2.318473  
0.0  101.685394  0.0  -1.377412  26.135683  -99.438822  4.195345  -20.452122  0.007552  -19.055501  10.801865  16.793514  3.364228  1.715321  4.341462  -21.144204  13.679797  -1.021565  -8.706476  7.255368  20.740655  -0.161336  3.110144  -3.187956  0.457339  0.543257  2.405618  1.302866  1.437724  6.586483  1.302866  1.437724  6.586483  -1.368568  23.54656  3.516008  138.617289  52.506163  -165.589074  -11.475744  -36.680403  106.472207  97.232673  13.496615  -35.717948  9.661789  -5.338103  12.938674  58.566114  62.923688  -5.508814  -60.388235  42.755494  -84.901075  74.756108  8.28279  36.513194  -10.355532  -4.604121  -3.07338  -7.785882  -3.402302  -2.382776  
0.0  101.685394  0.0  -1.644747  26.75602  -99.335044  3.189581  -20.694932  -0.966524  -19.148396  11.381673  18.295984  3.288705  2.044575  3.922956  -21.049681  13.388424  -1.351138  -10.462322  7.542075  21.163457  0.939501  3.475961  -3.145097  0.386351  0.528759  2.397477  1.107401  1.405356  6.562433  1.107401  1.405356  6.562434  -1.49625  23.652694  3.649044  137.919241  53.221461  -166.134827  -11.351851  -36.375248  106.335464  97.24412  13.317482  -35.754799  9.374201  -5.199329  12.631257  58.648604  63.029795  -5.505815  -60.231367  42.483685  -84.895941  74.777878  8.443575  36.111279  -10.718151  -4.751258  -3.189279  -8.059089  -3.508935  -2.474996  
0.0  101.685394  0.0  -2.000148  27.229417  -99.249071  2.065377  -20.925294  -1.949746  -18.935609  11.90632  20.00741  3.330578  2.424587  3.490706  -20.614216  12.891985  -1.721252  -10.876966  7.78031  22.046792  0.770221  3.603688  -3.223429  0.320673  0.490181  2.380526  0.923884  1.306794  6.514083  0.923884  1.306794  6.514083  -1.432214  23.831544  3.891557  137.0391  53.955005  -166.736372  -11.156199  -36.212255  106.106701  97.324187  13.381559  -35.887624  9.184008  -5.015689  12.336037  58.784225  63.185803  -5.430706  -59.984044  41.965587  -84.90799  74.656469  8.605014  35.544104  -11.011853  -4.857004  -3.303647  -8.280517  -3.584766  -2.564949  
0.0  101.685394  0.0  -2.391382  27.659151  -99.143958  0.930605  -20.984234  -2.868571  -18.427095  12.198672  21.876266  3.348009  2.793563  2.941292  -20.12675  12.268019  -2.353993  -11.161849  8.099469  23.14853  0.554768  3.807178  -3.244492  0.238415  0.433924  2.357185  0.693306  1.161555  6.44795  0.693306  1.161555  6.447951  -1.350142  24.058273  4.080525  136.180982  54.706914  -167.438062  -10.909408  -36.087729  105.832457  97.417692  13.483085  -36.076909  9.176334  -4.812297  12.041854  59.047414  63.420429  -5.178226  -59.760138  41.395611  -84.888879  74.619715  8.760296  34.955842  -11.418698  -4.85665  -3.462603  -8.58677  -3.579447  -2.687455  
